<mxfile host="app.diagrams.net" modified="2023-11-27T13:29:19.520Z" agent="Mozilla/5.0 (Windows NT 10.0; Win64; x64) AppleWebKit/537.36 (KHTML, like Gecko) Chrome/119.0.0.0 Safari/537.36" etag="_xBT4dOVL0aaj4CM76G0" version="22.1.4" type="device">
  <diagram name="Page-1" id="QM0_sCNBd0vK6HjQ-s82">
    <mxGraphModel dx="2150" dy="975" grid="1" gridSize="10" guides="1" tooltips="1" connect="1" arrows="1" fold="1" page="1" pageScale="1" pageWidth="850" pageHeight="1100" math="0" shadow="0">
      <root>
        <mxCell id="0" />
        <mxCell id="1" parent="0" />
        <mxCell id="qBGFzwKlG09aGbHBkw9M-8" style="edgeStyle=orthogonalEdgeStyle;rounded=0;orthogonalLoop=1;jettySize=auto;html=1;exitX=0.5;exitY=1;exitDx=0;exitDy=0;" edge="1" parent="1" source="qBGFzwKlG09aGbHBkw9M-1" target="qBGFzwKlG09aGbHBkw9M-2">
          <mxGeometry relative="1" as="geometry" />
        </mxCell>
        <mxCell id="qBGFzwKlG09aGbHBkw9M-1" value="User Inputs" style="rounded=0;whiteSpace=wrap;html=1;" vertex="1" parent="1">
          <mxGeometry x="80" y="160" width="120" height="60" as="geometry" />
        </mxCell>
        <mxCell id="qBGFzwKlG09aGbHBkw9M-9" style="edgeStyle=orthogonalEdgeStyle;rounded=0;orthogonalLoop=1;jettySize=auto;html=1;exitX=1;exitY=0.5;exitDx=0;exitDy=0;entryX=0;entryY=0.5;entryDx=0;entryDy=0;" edge="1" parent="1" source="qBGFzwKlG09aGbHBkw9M-2" target="qBGFzwKlG09aGbHBkw9M-6">
          <mxGeometry relative="1" as="geometry" />
        </mxCell>
        <mxCell id="qBGFzwKlG09aGbHBkw9M-23" style="edgeStyle=orthogonalEdgeStyle;rounded=0;orthogonalLoop=1;jettySize=auto;html=1;exitX=0.5;exitY=1;exitDx=0;exitDy=0;entryX=0.5;entryY=0;entryDx=0;entryDy=0;" edge="1" parent="1" source="qBGFzwKlG09aGbHBkw9M-2" target="qBGFzwKlG09aGbHBkw9M-13">
          <mxGeometry relative="1" as="geometry" />
        </mxCell>
        <mxCell id="qBGFzwKlG09aGbHBkw9M-2" value="Membrane/water Type&amp;nbsp;" style="rounded=0;whiteSpace=wrap;html=1;" vertex="1" parent="1">
          <mxGeometry x="80" y="280" width="120" height="60" as="geometry" />
        </mxCell>
        <mxCell id="qBGFzwKlG09aGbHBkw9M-36" style="edgeStyle=orthogonalEdgeStyle;rounded=0;orthogonalLoop=1;jettySize=auto;html=1;exitX=0;exitY=0.5;exitDx=0;exitDy=0;" edge="1" parent="1" source="qBGFzwKlG09aGbHBkw9M-3" target="qBGFzwKlG09aGbHBkw9M-35">
          <mxGeometry relative="1" as="geometry" />
        </mxCell>
        <mxCell id="qBGFzwKlG09aGbHBkw9M-39" style="edgeStyle=orthogonalEdgeStyle;rounded=0;orthogonalLoop=1;jettySize=auto;html=1;exitX=1;exitY=0.5;exitDx=0;exitDy=0;entryX=0;entryY=0.5;entryDx=0;entryDy=0;" edge="1" parent="1" source="qBGFzwKlG09aGbHBkw9M-3" target="qBGFzwKlG09aGbHBkw9M-38">
          <mxGeometry relative="1" as="geometry" />
        </mxCell>
        <mxCell id="qBGFzwKlG09aGbHBkw9M-3" value="Result&amp;nbsp;" style="rounded=0;whiteSpace=wrap;html=1;" vertex="1" parent="1">
          <mxGeometry x="479" y="680" width="120" height="60" as="geometry" />
        </mxCell>
        <mxCell id="qBGFzwKlG09aGbHBkw9M-33" style="edgeStyle=orthogonalEdgeStyle;rounded=0;orthogonalLoop=1;jettySize=auto;html=1;exitX=0.5;exitY=1;exitDx=0;exitDy=0;entryX=0.75;entryY=0;entryDx=0;entryDy=0;" edge="1" parent="1" source="qBGFzwKlG09aGbHBkw9M-4" target="qBGFzwKlG09aGbHBkw9M-28">
          <mxGeometry relative="1" as="geometry" />
        </mxCell>
        <mxCell id="qBGFzwKlG09aGbHBkw9M-4" value="RO System Membrane Char" style="rounded=0;whiteSpace=wrap;html=1;" vertex="1" parent="1">
          <mxGeometry x="670" y="280" width="120" height="60" as="geometry" />
        </mxCell>
        <mxCell id="qBGFzwKlG09aGbHBkw9M-11" style="edgeStyle=orthogonalEdgeStyle;rounded=0;orthogonalLoop=1;jettySize=auto;html=1;exitX=1;exitY=0.5;exitDx=0;exitDy=0;entryX=0;entryY=0.5;entryDx=0;entryDy=0;" edge="1" parent="1" source="qBGFzwKlG09aGbHBkw9M-5" target="qBGFzwKlG09aGbHBkw9M-4">
          <mxGeometry relative="1" as="geometry" />
        </mxCell>
        <mxCell id="qBGFzwKlG09aGbHBkw9M-32" style="edgeStyle=orthogonalEdgeStyle;rounded=0;orthogonalLoop=1;jettySize=auto;html=1;exitX=0.5;exitY=1;exitDx=0;exitDy=0;entryX=0.5;entryY=0;entryDx=0;entryDy=0;" edge="1" parent="1" source="qBGFzwKlG09aGbHBkw9M-5" target="qBGFzwKlG09aGbHBkw9M-28">
          <mxGeometry relative="1" as="geometry" />
        </mxCell>
        <mxCell id="qBGFzwKlG09aGbHBkw9M-5" value="Feed water char" style="rounded=0;whiteSpace=wrap;html=1;" vertex="1" parent="1">
          <mxGeometry x="480" y="280" width="120" height="60" as="geometry" />
        </mxCell>
        <mxCell id="qBGFzwKlG09aGbHBkw9M-10" style="edgeStyle=orthogonalEdgeStyle;rounded=0;orthogonalLoop=1;jettySize=auto;html=1;exitX=1;exitY=0.5;exitDx=0;exitDy=0;entryX=0;entryY=0.5;entryDx=0;entryDy=0;" edge="1" parent="1" source="qBGFzwKlG09aGbHBkw9M-6" target="qBGFzwKlG09aGbHBkw9M-5">
          <mxGeometry relative="1" as="geometry" />
        </mxCell>
        <mxCell id="qBGFzwKlG09aGbHBkw9M-31" style="edgeStyle=orthogonalEdgeStyle;rounded=0;orthogonalLoop=1;jettySize=auto;html=1;exitX=0.5;exitY=1;exitDx=0;exitDy=0;entryX=0.25;entryY=0;entryDx=0;entryDy=0;" edge="1" parent="1" source="qBGFzwKlG09aGbHBkw9M-6" target="qBGFzwKlG09aGbHBkw9M-28">
          <mxGeometry relative="1" as="geometry" />
        </mxCell>
        <mxCell id="qBGFzwKlG09aGbHBkw9M-6" value="Membrane element char" style="rounded=0;whiteSpace=wrap;html=1;" vertex="1" parent="1">
          <mxGeometry x="280" y="280" width="120" height="60" as="geometry" />
        </mxCell>
        <mxCell id="qBGFzwKlG09aGbHBkw9M-30" style="edgeStyle=orthogonalEdgeStyle;rounded=0;orthogonalLoop=1;jettySize=auto;html=1;exitX=0.5;exitY=1;exitDx=0;exitDy=0;entryX=0;entryY=0.5;entryDx=0;entryDy=0;" edge="1" parent="1" source="qBGFzwKlG09aGbHBkw9M-13" target="qBGFzwKlG09aGbHBkw9M-28">
          <mxGeometry relative="1" as="geometry" />
        </mxCell>
        <mxCell id="qBGFzwKlG09aGbHBkw9M-13" value="Fixed parameters&amp;nbsp;" style="rounded=0;whiteSpace=wrap;html=1;" vertex="1" parent="1">
          <mxGeometry x="80" y="410" width="120" height="60" as="geometry" />
        </mxCell>
        <mxCell id="qBGFzwKlG09aGbHBkw9M-34" style="edgeStyle=orthogonalEdgeStyle;rounded=0;orthogonalLoop=1;jettySize=auto;html=1;exitX=0.5;exitY=1;exitDx=0;exitDy=0;entryX=0.5;entryY=0;entryDx=0;entryDy=0;" edge="1" parent="1" source="qBGFzwKlG09aGbHBkw9M-28" target="qBGFzwKlG09aGbHBkw9M-3">
          <mxGeometry relative="1" as="geometry" />
        </mxCell>
        <mxCell id="qBGFzwKlG09aGbHBkw9M-28" value="Python Script&amp;nbsp;" style="rounded=1;whiteSpace=wrap;html=1;" vertex="1" parent="1">
          <mxGeometry x="479" y="494" width="120" height="60" as="geometry" />
        </mxCell>
        <mxCell id="qBGFzwKlG09aGbHBkw9M-35" value="Excel&amp;nbsp;" style="shape=process;whiteSpace=wrap;html=1;backgroundOutline=1;" vertex="1" parent="1">
          <mxGeometry x="170" y="680" width="120" height="60" as="geometry" />
        </mxCell>
        <mxCell id="qBGFzwKlG09aGbHBkw9M-37" value="TW/BW/SW&lt;br&gt;NaCl/MgSO4/CuSO4" style="text;html=1;align=center;verticalAlign=middle;resizable=0;points=[];autosize=1;strokeColor=none;fillColor=none;" vertex="1" parent="1">
          <mxGeometry x="136" y="365" width="140" height="40" as="geometry" />
        </mxCell>
        <mxCell id="qBGFzwKlG09aGbHBkw9M-47" style="edgeStyle=orthogonalEdgeStyle;rounded=0;orthogonalLoop=1;jettySize=auto;html=1;exitX=1;exitY=0.5;exitDx=0;exitDy=0;entryX=1;entryY=0.5;entryDx=0;entryDy=0;" edge="1" parent="1" source="qBGFzwKlG09aGbHBkw9M-38" target="qBGFzwKlG09aGbHBkw9M-43">
          <mxGeometry relative="1" as="geometry">
            <Array as="points">
              <mxPoint x="970" y="710" />
              <mxPoint x="970" y="1330" />
            </Array>
          </mxGeometry>
        </mxCell>
        <mxCell id="qBGFzwKlG09aGbHBkw9M-38" value="Detailed Result" style="rounded=0;whiteSpace=wrap;html=1;" vertex="1" parent="1">
          <mxGeometry x="737" y="680" width="120" height="60" as="geometry" />
        </mxCell>
        <mxCell id="qBGFzwKlG09aGbHBkw9M-40" value="Rcal" style="rounded=0;whiteSpace=wrap;html=1;" vertex="1" parent="1">
          <mxGeometry x="741" y="806" width="120" height="60" as="geometry" />
        </mxCell>
        <mxCell id="qBGFzwKlG09aGbHBkw9M-41" value="Feed water char" style="rounded=0;whiteSpace=wrap;html=1;" vertex="1" parent="1">
          <mxGeometry x="741" y="990" width="120" height="60" as="geometry" />
        </mxCell>
        <mxCell id="qBGFzwKlG09aGbHBkw9M-42" value="Concentrate water char&amp;nbsp;" style="rounded=0;whiteSpace=wrap;html=1;" vertex="1" parent="1">
          <mxGeometry x="741" y="1100" width="120" height="60" as="geometry" />
        </mxCell>
        <mxCell id="qBGFzwKlG09aGbHBkw9M-43" value="Other Parameters&amp;nbsp;" style="rounded=0;whiteSpace=wrap;html=1;" vertex="1" parent="1">
          <mxGeometry x="742" y="1300" width="120" height="60" as="geometry" />
        </mxCell>
        <mxCell id="qBGFzwKlG09aGbHBkw9M-44" value="Pressure Parameters" style="rounded=0;whiteSpace=wrap;html=1;" vertex="1" parent="1">
          <mxGeometry x="741" y="1200" width="120" height="60" as="geometry" />
        </mxCell>
        <mxCell id="qBGFzwKlG09aGbHBkw9M-45" value="Permeate water char" style="rounded=0;whiteSpace=wrap;html=1;" vertex="1" parent="1">
          <mxGeometry x="741" y="900" width="120" height="60" as="geometry" />
        </mxCell>
        <mxCell id="qBGFzwKlG09aGbHBkw9M-48" value="" style="endArrow=classic;html=1;rounded=0;" edge="1" parent="1">
          <mxGeometry width="50" height="50" relative="1" as="geometry">
            <mxPoint x="970" y="836" as="sourcePoint" />
            <mxPoint x="860" y="836" as="targetPoint" />
          </mxGeometry>
        </mxCell>
        <mxCell id="qBGFzwKlG09aGbHBkw9M-54" value="" style="endArrow=classic;html=1;rounded=0;" edge="1" parent="1">
          <mxGeometry width="50" height="50" relative="1" as="geometry">
            <mxPoint x="969" y="931" as="sourcePoint" />
            <mxPoint x="859" y="931" as="targetPoint" />
          </mxGeometry>
        </mxCell>
        <mxCell id="qBGFzwKlG09aGbHBkw9M-55" value="" style="endArrow=classic;html=1;rounded=0;" edge="1" parent="1">
          <mxGeometry width="50" height="50" relative="1" as="geometry">
            <mxPoint x="972" y="1020" as="sourcePoint" />
            <mxPoint x="862" y="1020" as="targetPoint" />
          </mxGeometry>
        </mxCell>
        <mxCell id="qBGFzwKlG09aGbHBkw9M-56" value="" style="endArrow=classic;html=1;rounded=0;" edge="1" parent="1">
          <mxGeometry width="50" height="50" relative="1" as="geometry">
            <mxPoint x="971" y="1129.23" as="sourcePoint" />
            <mxPoint x="861" y="1129.23" as="targetPoint" />
          </mxGeometry>
        </mxCell>
        <mxCell id="qBGFzwKlG09aGbHBkw9M-58" value="" style="endArrow=classic;html=1;rounded=0;" edge="1" parent="1">
          <mxGeometry width="50" height="50" relative="1" as="geometry">
            <mxPoint x="971" y="1229.23" as="sourcePoint" />
            <mxPoint x="861" y="1229.23" as="targetPoint" />
          </mxGeometry>
        </mxCell>
      </root>
    </mxGraphModel>
  </diagram>
</mxfile>
